<svg width="599" height="520" viewBox="0 0 599 520" fill="none" xmlns="http://www.w3.org/2000/svg">
<path fill-rule="evenodd" clip-rule="evenodd" d="M445.6 1.75C444.756 2.712 443.578 6.425 442.984 10C442.39 13.575 441.196 20.325 440.332 25C439.467 29.675 438.129 37.1 437.358 41.5C436.587 45.9 435.222 53.325 434.324 58C433.427 62.675 432.057 70.1 431.279 74.5C430.501 78.9 429.15 86.1 428.278 90.5C425.298 105.519 424.347 115.717 425.765 117.427C426.85 118.733 431.18 119.009 454.185 119.234L481.326 119.5L481.581 208.171C481.743 264.341 481.477 297.787 480.856 299.421L479.876 302H467.549H455.223L446.024 310.583C438.54 317.567 436.826 319.704 436.826 322.048C436.826 324.823 439.045 327 441.875 327C442.524 327 446.524 323.625 450.763 319.5L458.47 312H484.199H509.928L518.358 319.5C522.995 323.625 527.439 327 528.236 327C530.372 327 532.826 324.168 532.826 321.704C532.826 320.318 529.663 316.433 523.958 310.808L515.09 302.066L503.208 301.783L491.326 301.5V210.5V119.5L517.064 119.233L542.802 118.966L544.424 116.491C545.374 115.041 545.754 113.287 545.342 112.258C544.955 111.291 543.994 106.9 543.208 102.5C541.132 90.88 538.887 78.573 537.28 70C536.507 65.875 535.225 58.9 534.432 54.5C533.638 50.1 532.259 42.45 531.367 37.5C530.475 32.55 529.11 25.125 528.334 21C527.558 16.875 526.461 11.026 525.896 8.00201C525.325 4.95101 524.106 1.94701 523.156 1.25201C521.857 0.303014 512.466 0 484.29 0C450.157 0 447.011 0.142 445.6 1.75ZM516.207 11.25C516.992 12.488 518.13 16.875 518.735 21C519.341 25.125 520.475 31.875 521.256 36C523.99 50.442 526.036 61.563 527.329 69C530.232 85.702 530.995 89.637 531.918 92.649C532.448 94.381 533.16 98.768 533.499 102.399L534.115 109H484.471C445.398 109 434.835 108.734 434.87 107.75C434.894 107.063 435.35 104.475 435.885 102C436.419 99.525 437.537 93.675 438.369 89C439.202 84.325 440.513 77.125 441.284 73C442.055 68.875 443.423 61.45 444.323 56.5C445.224 51.55 446.589 44.125 447.357 40C448.125 35.875 449.418 28.9 450.231 24.5C452.38 12.862 452.997 10.584 454.225 9.76501C454.831 9.36101 468.703 9.02401 485.053 9.01501L514.78 9L516.207 11.25ZM216.826 94.998C205.35 96.385 189.512 98.916 182.826 100.43C168.132 103.758 157.846 106.607 152.511 108.828C150.963 109.473 149.29 110 148.795 110C148.299 110 146.416 110.637 144.61 111.417C142.804 112.196 139.526 113.579 137.326 114.49C101.24 129.44 77.3106 154.397 74.2706 180.252C73.6086 185.885 73.4796 186.08 67.9826 189.752C56.3416 197.527 51.0775 211.941 55.4885 223.967C59.0665 233.724 65.1455 239.604 76.0755 243.881L78.8255 244.957L78.9795 263.229C79.0645 273.278 79.0156 287.8 78.8706 295.5C78.5546 312.341 79.5275 316.702 84.7725 321.947C95.7445 332.919 114.826 324.757 114.826 309.091C114.826 306.906 115.256 304.852 115.782 304.527C117.056 303.74 385.485 302.757 387.924 303.531C389.331 303.978 389.834 305.093 389.858 307.817C389.876 309.843 391.113 313.936 392.608 316.912C396.35 324.365 401.826 327.378 410.163 326.575C416.592 325.955 420.414 323.789 424.036 318.71C426.294 315.545 426.333 315.006 426.826 280.027L427.326 244.555L431.356 243.027C437.765 240.599 443.434 235.923 446.912 230.198C452.429 221.117 452.16 207.527 446.284 198.491C443.81 194.687 437.463 189.32 433.62 187.782C432.627 187.385 431.827 186.046 431.829 184.782C431.834 180.05 428.519 168.246 425.29 161.5C419.882 150.203 408.2 137.841 393.826 128.205C388.189 124.426 366.183 113 364.542 113C364.039 113 362.21 112.36 360.477 111.578C358.744 110.796 354.176 109.176 350.326 107.977C346.476 106.778 342.426 105.419 341.326 104.957C337.627 103.403 318.067 99.223 308.326 97.905C304.476 97.384 299.301 96.443 296.826 95.813C291.498 94.458 226.748 93.798 216.826 94.998ZM290.826 105.053C310.486 107.187 330.039 111.357 347.326 117.102C359.25 121.065 360.313 121.515 374.316 128.524C399.955 141.358 415.709 157.853 420.822 177.215C422.306 182.838 421.692 185 418.607 185.001C415.694 185.002 408.346 187.841 403.632 190.786C401.619 192.044 398.252 195.644 396.149 198.786L392.326 204.5L391.986 225C391.786 237.102 391.224 246.012 390.614 246.75C389.797 247.739 361.716 248 256.343 248C183.062 248 121.017 247.714 118.466 247.364L113.826 246.728V227.391C113.826 208.59 113.753 207.901 111.199 202.505C106.72 193.046 95.2886 185 86.3276 185C83.6446 185 83.6096 184.921 84.2706 180.25C87.0676 160.47 104.522 141.457 132.769 127.421C137.663 124.99 142.04 122.997 142.497 122.994C142.953 122.99 144.451 122.411 145.826 121.705C150.512 119.301 155.88 117.552 175.826 111.929C180 110.752 186.471 109.432 197.326 107.543C201.726 106.777 206.901 105.866 208.826 105.517C221.956 103.138 270.651 102.863 290.826 105.053ZM89.2326 196.39C94.7456 198.309 99.4825 202.387 101.822 207.227C103.651 211.014 103.826 213.405 103.826 234.672V257.969L252.576 257.734L401.326 257.5L401.826 233L402.326 208.5L405.199 204.264C410.303 196.741 422.273 192.88 429.422 196.45C431.019 197.247 434.105 199.722 436.279 201.949C439.909 205.669 440.265 206.528 440.643 212.474C441.183 220.94 440.516 223.23 436.089 228.13C431.839 232.835 429.276 234.098 422.326 234.914L417.326 235.5L416.826 274.339L416.326 313.178L413.965 315.089C410.558 317.847 405.993 317.535 402.631 314.313C399.973 311.767 399.826 311.164 399.826 302.81V293.993L252.576 294.247L105.326 294.5L105.039 303.706C104.772 312.263 104.569 313.057 102.154 314.956C99.3125 317.191 95.7666 317.574 92.7706 315.97C88.3506 313.605 88.1186 311.498 88.0376 273C87.9956 252.925 87.9305 236.163 87.8935 235.75C87.8565 235.337 86.0806 235 83.9476 235C78.7556 235 73.9925 232.864 70.1875 228.828C61.6535 219.778 61.6796 209.016 70.2536 200.929C76.4196 195.113 81.8396 193.817 89.2326 196.39ZM253.826 346.034C253.826 347.609 254.396 348.097 256.076 347.961C257.313 347.861 258.88 347.828 259.557 347.889C260.482 347.973 260.855 353.521 261.057 370.25C261.287 389.241 261.546 392.5 262.826 392.5C264.106 392.5 264.365 389.248 264.595 370.309L264.864 348.118L268.595 347.809C271.107 347.601 272.326 347.01 272.326 346C272.326 344.795 270.504 344.443 263.076 344.212C254.242 343.938 253.826 344.02 253.826 346.034ZM290.452 344.796C289.841 345.785 289.896 388.847 290.512 391.25C290.759 392.212 291.605 393 292.393 393C293.56 393 293.826 390.683 293.826 380.5V368H299.795H305.764L306.045 380.25C306.277 390.347 306.59 392.5 307.826 392.5C309.118 392.5 309.326 389.167 309.326 368.5C309.326 347.833 309.118 344.5 307.826 344.5C306.614 344.5 306.271 346.383 306.039 354.299L305.752 364.098L300.039 363.799L294.326 363.5L294.04 353.75C293.818 346.18 293.44 344 292.349 344C291.576 344 290.723 344.358 290.452 344.796ZM331.826 368.546V393.091L338.566 392.796C344.049 392.555 345.368 392.174 345.639 390.75C345.922 389.268 345.19 389 340.863 389H335.754L336.04 379.25L336.326 369.5L341.138 369.193C345.029 368.944 345.889 368.561 345.629 367.193C345.392 365.941 344.073 365.421 340.567 365.195L335.826 364.89V356.445C335.826 350.402 336.181 347.976 337.076 347.914C337.764 347.866 339.893 347.754 341.808 347.664C344.244 347.549 345.392 346.975 345.631 345.75C345.93 344.216 345.099 344 338.899 344H331.826V368.546ZM15.7555 362.584C14.8025 363.733 14.7295 364.625 15.4925 365.834C16.4625 367.372 24.6615 367.5 121.826 367.5C217.63 367.5 227.2 367.355 228.126 365.886C228.686 364.998 228.862 363.536 228.517 362.636C227.941 361.136 219.147 361 122.48 361C27.5235 361 16.9405 361.157 15.7555 362.584ZM371.135 362.636C370.79 363.536 370.966 364.998 371.526 365.886C372.45 367.352 382.132 367.523 477.026 367.755C580.154 368.006 581.531 367.983 583.305 366.023C584.776 364.398 584.873 363.762 583.842 362.519C582.729 361.178 570.228 361 477.172 361C380.505 361 371.711 361.136 371.135 362.636ZM474.337 405.601C469.625 407.326 463.372 413.088 460.883 418C455.776 428.078 455.326 431.723 455.326 463C455.326 494.52 455.255 493.965 460.86 506.5C463.589 512.601 469.456 517.699 475.228 518.985C480.544 520.169 487.848 519.498 491.826 517.459C497.295 514.657 502.192 507.259 505.315 497.08C508.85 485.558 508.875 438.286 505.352 427C501.511 414.695 496.409 408.402 488.059 405.671C481.965 403.678 479.624 403.666 474.337 405.601ZM0.284565 407.25C0.0215648 407.938 -0.0774599 433.25 0.0655401 463.5L0.32555 518.5L5.07555 518.805L9.82555 519.11V462.555V406H5.29454C2.59054 406 0.569565 406.504 0.284565 407.25ZM59.0676 462.192L59.3256 518.5H62.8256H66.3255V473.75C66.3255 449.137 66.6625 428.999 67.0755 429C67.4885 429 67.8255 429.772 67.8255 430.717C67.8255 431.661 68.4595 434.248 69.2345 436.467C70.0085 438.685 71.6115 443.65 72.7955 447.5C73.9795 451.35 75.3315 455.4 75.7985 456.5C76.2665 457.6 77.6756 461.875 78.9306 466C80.1856 470.125 81.5235 473.95 81.9035 474.5C82.2835 475.05 82.9235 477.075 83.3255 479C83.7275 480.925 84.4025 482.95 84.8255 483.5C85.2485 484.05 85.9235 486.075 86.3255 488C86.7275 489.925 87.4025 491.95 87.8255 492.5C88.2485 493.05 88.9235 495.075 89.3255 497C89.7275 498.925 90.4025 500.95 90.8255 501.5C91.2485 502.05 91.9136 503.993 92.3046 505.817C92.6946 507.642 93.6436 510.342 94.4136 511.817C95.1836 513.293 95.8155 515.279 95.8195 516.231C95.8255 518.06 99.3525 519.43 102.497 518.825C104.239 518.489 104.338 515.813 104.584 462.236L104.843 406H100.941C98.3425 406 96.8415 406.517 96.4455 407.548C95.7765 409.291 96.5256 471.495 97.3876 485.75C97.6946 490.837 97.5795 495 97.1305 495C96.2205 495 93.9715 489.104 93.1255 484.5C92.8225 482.85 92.2325 481.05 91.8155 480.5C91.3975 479.95 90.7275 477.925 90.3255 476C89.9235 474.075 89.2485 472.05 88.8255 471.5C88.4025 470.95 87.7275 468.925 87.3255 467C86.9235 465.075 86.2485 463.05 85.8255 462.5C85.4025 461.95 84.7226 459.94 84.3136 458.033C83.9056 456.126 83.2115 453.876 82.7725 453.033C82.3325 452.19 78.6776 441.375 74.6496 429L67.3255 406.5L63.0676 406.192L58.8086 405.884L59.0676 462.192ZM146.22 407.416C145.921 408.194 145.823 410.107 146.001 411.666C146.324 414.485 146.368 414.502 154.295 414.796C159.117 414.975 162.567 415.568 163.03 416.296C163.451 416.958 163.802 440.337 163.811 468.25L163.826 519H167.857C170.174 519 172.082 518.468 172.343 517.75C172.592 517.063 172.916 493.775 173.061 466L173.326 415.5L181.576 415.21L189.826 414.919V410.46V406H168.295C150.649 406 146.665 406.255 146.22 407.416ZM231.068 462.25L231.326 518.5L248.076 518.774C258.976 518.953 264.858 518.691 264.917 518.024C264.967 517.461 265.008 515.65 265.008 514C265.008 512.35 264.967 510.55 264.917 510C264.862 509.394 260.099 509 252.826 509H240.826V487V465L251.576 464.985C257.489 464.976 262.92 464.593 263.645 464.133C264.472 463.609 264.845 461.841 264.645 459.398L264.326 455.5L252.555 455.218L240.784 454.936L241.055 435.218L241.326 415.5L253.326 415C259.926 414.725 265.214 414.163 265.076 413.75C264.938 413.337 264.826 411.425 264.826 409.5V406H247.818H230.809L231.068 462.25ZM312.068 462.106L312.326 518.5L315.641 518.818C321.648 519.395 321.635 519.456 321.347 491.718C321.203 477.848 321.299 465.94 321.56 465.256C322.164 463.674 323.826 464.645 323.826 466.58C323.826 467.384 325.235 471.07 326.958 474.771C328.681 478.472 330.659 482.85 331.353 484.5C332.047 486.15 333.089 488.625 333.668 490C334.247 491.375 336.041 495.425 337.656 499C339.271 502.575 341.622 507.975 342.88 511C344.138 514.025 345.596 517.063 346.119 517.75C347.055 518.98 354.961 519.531 356.05 518.443C356.356 518.136 355.624 515.999 354.423 513.693C353.222 511.387 350.954 506.575 349.384 503C344.728 492.397 341.809 485.862 338.887 479.5C331.696 463.839 331.671 463.603 337.087 462.485C346.568 460.529 351.338 453.507 352.362 440C353.6 423.659 349.927 413.08 341.579 408.942C338.185 407.259 334.75 406.72 324.568 406.273L311.809 405.712L312.068 462.106ZM399.285 407.25C399.022 407.938 398.923 433.25 399.066 463.5L399.326 518.5L402.826 518.581C404.751 518.626 406.889 518.233 407.576 517.709C408.549 516.966 408.826 504.504 408.826 461.378V406H404.295C401.591 406 399.57 406.504 399.285 407.25ZM554.637 409.634C554.056 414.289 554.704 517.212 555.319 517.827C555.556 518.064 557.455 518.292 559.538 518.335L563.326 518.412L563.592 491.243C563.822 467.707 564.056 464.151 565.342 464.645C566.158 464.958 566.826 465.785 566.826 466.483C566.826 467.598 568.656 472.091 573.349 482.5C574.092 484.15 575.855 488.302 577.266 491.726C580.628 499.886 584.405 508.415 587.13 514C589.107 518.051 589.714 518.532 593.208 518.818C597.822 519.196 599.437 518.013 597.916 515.368C596.868 513.546 590.626 500.012 586.677 491C585.592 488.525 584.08 485.15 583.317 483.5C582.554 481.85 580.296 476.973 578.298 472.663C576.301 468.352 574.815 464.701 574.996 464.548C576.427 463.344 580.091 462 581.944 462C583.329 462 586.013 460.112 588.927 457.09C593.073 452.788 593.748 451.476 594.368 446.51C594.758 443.392 594.877 436.039 594.634 430.17C594.235 420.523 593.921 419.091 591.365 415.233C587.04 408.706 581.984 406.823 567.223 406.244L555.12 405.768L554.637 409.634ZM486.797 415.485C490.188 417.238 492.791 420.809 495.194 427C499.096 437.056 499.195 487.351 495.333 497.922C493.141 503.921 490.387 507.574 486.648 509.439C479.975 512.768 473.663 510.13 469.913 502.445C468.586 499.725 467.073 496.637 466.551 495.583C465.043 492.541 464.044 464.757 464.836 447.906C465.697 429.587 467.357 423.469 472.997 417.829C477.283 413.543 481.617 412.806 486.797 415.485ZM338.491 419.471C342.223 423.379 343.477 430.195 342.425 440.851C341.368 451.545 337.449 455.199 327.507 454.758L321.689 454.5L321.646 436C321.623 425.825 321.654 416.902 321.715 416.17C321.801 415.136 323.322 414.987 328.576 415.499C334.495 416.076 335.716 416.565 338.491 419.471ZM581.326 419.121L584.326 422.038V435.497C584.326 448.849 584.304 448.976 581.573 451.708C579.155 454.126 577.906 454.508 571.323 454.84L563.826 455.219V435.776C563.826 425.083 564.151 416.008 564.548 415.611C564.946 415.214 568.208 415.184 571.798 415.546C577.162 416.086 578.861 416.723 581.326 419.121Z" fill="white"/>
</svg>
